PathFileType  4	(X/Y/Z) C:\Users\antoi\Documents\MyRepositories\mobilecap\ResultsAnalysis
DataRate	CameraRate	NumFrames	NumMarkers	Units	OrigDataRate	OrigDataStartFrame	OrigNumFrames
100.0	100.0	4	51	mm	100.0	52	137
Frame#	Time	r_knee			r_shank_antsup			r_ankle			r_calc			r_5meta			r_toe			L_knee			L_shank_antsup			L_ankle			L_calc			L_5meta			L_toe			r_sh2			r_sh3			r_sh4			L_sh2			L_sh3			r_thigh1			r_thigh2			r_thigh3			r_thigh4			r_thigh5			L_thigh1			L_thigh2			L_thigh3			L_thigh4			r.ASIS			r.PSIS			L.ASIS			L.PSIS			C7			R_Shoulder			L_Shoulder			R_Sternum			L_Sternum			R_humerus			R_elbow_med			R_elbow_lat			R_forearm			R_wrist_radius			R_wrist_ulna			L_humerus			L_elbow_med			L_elbow_lat			L_forearm			L_wrist_radius			L_wrist_ulna			R_HJC			L_HJC			R_HJC_reg			L_HJC_reg			
		X1	Y1	Z1	X2	Y2	Z2	X3	Y3	Z3	X4	Y4	Z4	X5	Y5	Z5	X6	Y6	Z6	X7	Y7	Z7	X8	Y8	Z8	X9	Y9	Z9	X10	Y10	Z10	X11	Y11	Z11	X12	Y12	Z12	X13	Y13	Z13	X14	Y14	Z14	X15	Y15	Z15	X16	Y16	Z16	X17	Y17	Z17	X18	Y18	Z18	X19	Y19	Z19	X20	Y20	Z20	X21	Y21	Z21	X22	Y22	Z22	X23	Y23	Z23	X24	Y24	Z24	X25	Y25	Z25	X26	Y26	Z26	X27	Y27	Z27	X28	Y28	Z28	X29	Y29	Z29	X30	Y30	Z30	X31	Y31	Z31	X32	Y32	Z32	X33	Y33	Z33	X34	Y34	Z34	X35	Y35	Z35	X36	Y36	Z36	X37	Y37	Z37	X38	Y38	Z38	X39	Y39	Z39	X40	Y40	Z40	X41	Y41	Z41	X42	Y42	Z42	X43	Y43	Z43	X44	Y44	Z44	X45	Y45	Z45	X46	Y46	Z46	X47	Y47	Z47	X48	Y48	Z48	X49	Y49	Z49	X50	Y50	Z50	X51	Y51	Z51	

52	0.51000000	368.14115	523.92446	-38.85997	372.53059	418.91374	-58.71582	192.95228	128.65585	-100.93163	99.03455	86.94876	-146.85230	294.49424	46.68097	-62.10111	354.36363	70.09246	-128.10115	640.77443	541.07701	-389.77432	674.05756	463.53239	-420.58856	795.16028	145.00302	-394.61555	758.31364	61.34743	-336.82164	928.94659	124.46402	-444.82505	975.41540	176.73624	-388.89978	322.49823	318.68505	-43.56999	320.91269	450.64712	-14.05100	252.75869	355.89631	-13.76952	593.15419	430.55916	-399.74731	651.09627	323.38507	-405.16191	505.97288	831.66776	-6.15923	489.19292	722.41674	-16.21273	427.74768	706.65398	8.50945	393.22373	843.96111	12.20592	378.04020	731.28940	-5.05954	583.57897	836.90321	-361.43784	649.20538	712.31996	-363.47553	490.36983	785.44140	-389.21057	551.35703	664.01242	-395.99038	532.37305	1059.26783	-52.99204	351.31203	1053.08709	-123.28324	533.91281	1033.43296	-308.41888	346.98175	1038.67143	-232.53097	454.70408	1557.25212	-366.65285	554.88343	1545.53552	-203.21884	447.50358	1412.24038	-497.29074	559.25520	1457.23788	-325.61258	540.87450	1430.74712	-371.79758	581.55674	1430.17069	-81.66735	503.49597	1241.49568	7.53750	545.30642	1298.44401	61.35336	679.26961	1185.06287	80.17268	754.54296	1126.36409	63.62218	728.76620	1119.55012	102.32480	379.01248	1277.31400	-511.96740	303.39859	1104.14642	-352.61152	278.80426	1092.71917	-430.06277	280.82158	1018.87130	-445.32451	263.43193	842.57868	-409.95028	224.70126	854.50447	-400.38212	463.46884	935.92144	-62.95588	457.18800	920.04897	-269.21309	481.22828	972.43758	-76.00320	474.57559	950.28641	-243.86383	
53	0.52000000	379.10055	521.89962	-39.91536	381.25327	416.06278	-59.72053	194.85801	130.90760	-100.80941	100.22035	90.02156	-146.77226	294.76666	46.74447	-61.96433	355.14338	69.52533	-128.08067	657.12089	540.14716	-391.13926	688.66091	461.44039	-421.77820	803.64529	141.23631	-395.45859	765.59953	60.99611	-337.03736	936.67675	117.57619	-446.28907	984.58301	169.27134	-391.06877	329.44834	317.35399	-44.33645	331.29034	449.39397	-14.81534	260.67596	356.20984	-14.20900	607.34538	430.17849	-400.17053	662.99244	322.03238	-405.46036	518.55377	829.07348	-7.28877	501.26111	719.92086	-17.12420	439.78052	704.45252	7.44831	405.88783	841.86694	10.72158	390.17137	729.20125	-6.35943	599.85272	836.49910	-362.42517	666.00653	712.17211	-364.44335	506.88954	784.63441	-390.66728	568.46386	663.54330	-397.62376	546.31859	1056.60168	-54.20258	365.31853	1050.83785	-124.96898	548.39732	1030.72747	-309.97095	361.12316	1036.30538	-234.13097	469.16837	1553.09721	-372.05007	569.26328	1542.60552	-208.48998	461.62251	1406.91360	-501.41492	573.68990	1453.21153	-330.23453	555.06390	1426.27082	-376.24660	595.39368	1428.53054	-85.49517	517.09722	1240.88566	5.61306	558.56489	1298.68103	58.93539	693.57091	1186.74590	77.98853	769.40116	1128.93033	61.49824	743.88120	1121.89581	100.25775	391.76691	1272.62701	-514.49015	313.71555	1102.38953	-353.20842	288.63705	1090.55913	-430.40833	289.43688	1016.64816	-445.04279	269.84310	840.85814	-407.96119	231.34307	853.31921	-398.25524	477.17962	933.40228	-64.40573	471.24473	917.50181	-270.67219	495.03080	969.94977	-77.24530	488.57230	947.57458	-245.31694	
54	0.53000000	390.50234	519.82090	-41.23537	390.40359	413.19295	-60.91692	196.91156	133.45227	-100.72369	101.64482	93.72000	-146.73198	295.14074	46.90241	-61.84978	355.96837	68.86746	-128.07897	673.30488	539.29895	-392.48351	703.29499	459.46955	-422.71193	810.92614	137.30715	-396.05278	770.82607	61.42047	-337.35719	943.06567	109.45691	-447.02974	992.62741	160.13973	-392.26870	336.69339	316.10340	-45.24542	342.18069	448.16095	-15.75576	269.00809	356.68547	-14.81028	621.35464	430.22742	-400.79687	674.37664	320.83406	-405.86031	531.50600	826.47365	-8.77852	513.72908	717.42374	-18.36441	452.28803	702.19770	6.07202	418.89641	839.72388	8.96152	402.75014	727.05817	-7.91336	615.97303	836.14628	-363.97939	682.72290	712.11858	-365.97427	523.16516	783.76009	-392.12969	585.29949	662.97680	-399.02018	560.52565	1053.95417	-55.66334	379.53781	1048.69284	-126.79999	563.05994	1028.27824	-311.74072	375.46199	1034.16972	-235.89743	483.64229	1549.11072	-377.44968	583.72253	1539.86037	-213.71793	475.85429	1401.80537	-505.53152	588.24315	1449.37720	-334.85867	569.37717	1422.01356	-380.69402	609.11945	1426.96697	-89.30871	530.20833	1240.38409	3.38215	571.30521	1298.89770	56.32677	707.09124	1188.13960	75.80668	783.40985	1131.07547	59.50194	758.03969	1123.84654	98.26286	404.78760	1268.13016	-517.09212	324.51232	1100.68928	-354.02469	298.96799	1088.51195	-430.98943	298.68444	1014.52317	-445.03458	276.99535	839.26800	-406.42000	238.72752	852.20687	-396.53675	491.12538	930.92310	-66.16413	485.46189	915.19084	-272.45179	509.06738	967.49028	-78.82069	502.78120	945.09139	-247.09106	
55	0.54000000	402.45207	517.74652	-42.78483	400.08914	410.41075	-62.28011	199.27066	136.40606	-100.75889	103.37577	98.17032	-146.79930	295.66367	47.22230	-61.80149	356.86931	68.13671	-128.08128	689.14702	538.51852	-393.85987	717.88538	457.68310	-423.49147	817.55416	133.51293	-396.53018	774.76619	62.50753	-337.87338	948.67706	100.76551	-447.07022	999.92626	150.15765	-392.51022	344.23722	315.00471	-46.29211	353.54521	447.00899	-16.89035	277.76298	357.40432	-15.63040	635.18716	430.57833	-401.72999	685.48490	319.82189	-406.48840	544.89323	823.91149	-10.64854	526.69246	714.95133	-19.97143	465.34391	699.93823	4.40898	432.32153	837.56004	6.94748	415.87030	724.90475	-9.72749	631.68179	835.73906	-366.25510	699.08170	712.04972	-368.19200	538.93264	782.72439	-393.66156	601.57845	662.21240	-400.16989	575.04206	1051.36509	-57.37623	393.99288	1046.68411	-128.77682	577.87362	1026.08421	-313.70822	389.98378	1032.34408	-237.84108	498.15221	1545.33334	-382.81019	598.28070	1537.33463	-218.87654	490.20668	1396.94946	-509.61784	602.92658	1445.79002	-339.46855	583.83344	1418.02988	-385.12678	622.73666	1425.49117	-93.09192	542.84491	1239.99400	0.86963	583.56349	1299.09885	53.54622	719.87136	1189.23658	73.63211	796.60583	1132.77768	57.62951	771.27907	1125.38804	96.34721	418.11061	1263.82219	-519.78533	335.82457	1099.01868	-355.06695	309.83877	1086.56686	-431.81073	308.57924	1012.48052	-445.31015	284.92472	837.77487	-405.34328	246.89059	851.14482	-395.24929	505.30189	928.52598	-68.22291	499.81038	913.14398	-274.54194	523.39838	965.02660	-80.74132	517.20548	942.88115	-249.19212	
